<svg width="80" height="80" viewBox="0 0 80 80" fill="none" xmlns="http://www.w3.org/2000/svg">
<path d="M46.8729 75.5392V47.5225H30.8325" stroke="#323232" stroke-width="2" stroke-linejoin="round"/>
<path d="M40.2959 53.5807H34.3318V59.4332H40.2959V53.5807Z" stroke="#323232" stroke-width="2" stroke-linejoin="round"/>
<path d="M40.2959 63.8683H34.3318V69.7208H40.2959V63.8683Z" stroke="#323232" stroke-width="2" stroke-linejoin="round"/>
<path d="M49.8936 61.9253H52.8359V67.7664H49.8936" stroke="#323232" stroke-width="2" stroke-linejoin="round"/>
<path d="M64.1739 61.9253H58.2098V67.7778H64.1739V61.9253Z" stroke="#323232" stroke-width="2" stroke-linejoin="round"/>
<path d="M70.4897 75.5389V55.3636H49.8484" stroke="#323232" stroke-width="2" stroke-linejoin="round"/>
<path d="M20.5633 42.5842H28.2995" stroke="#323232" stroke-width="2" stroke-miterlimit="10" stroke-linecap="round"/>
<path d="M22.5739 75.4705L20.0179 33.634C19.9498 31.5993 18.8592 30.8792 17.9504 30.8792H13.3382C12.4294 30.8792 11.3502 31.5993 11.2707 33.6225L8.71466 75.4705" stroke="#323232" stroke-width="2" stroke-linejoin="round"/>
<path d="M10.4748 36.1718H20.8125" stroke="#323232" stroke-width="2" stroke-miterlimit="10" stroke-linecap="round"/>
<path d="M6.22638 75.5391H72.7736" stroke="#323232" stroke-width="2" stroke-miterlimit="10"/>
<path d="M32.0822 25.9641C31.2529 28.033 30.3214 31.4165 30.3214 34.8C30.3214 34.8 33.2977 31.748 38.1257 31.748H62.3908C66.2987 31.748 69.4681 28.3874 69.4681 24.2723C69.4681 20.1572 66.2987 16.7966 62.3908 16.7966C61.7433 16.7966 61.1071 16.888 60.4937 17.0709C59.7894 16.3965 58.9828 15.8593 58.1194 15.4821" stroke="#323232" stroke-width="2" stroke-linejoin="round"/>
<path d="M21.9937 22.7634H47.4856C51.5866 22.7634 54.9265 19.2313 54.9265 14.9105C54.9265 10.5896 51.5866 7.0461 47.4856 7.0461C46.804 7.0461 46.1338 7.13755 45.4863 7.33187C43.9527 5.84588 41.9306 5 39.829 5C37.6024 5 35.5008 5.91446 33.9331 7.56049C33.0924 7.21757 32.2064 7.0461 31.2748 7.0461C29.23 7.0461 27.2988 7.92627 25.9015 9.46942C23.5954 9.80091 13.7803 10.9097 13.7803 25.964C13.7803 25.964 16.9157 22.7634 21.9823 22.7634H21.9937Z" stroke="#323232" stroke-width="2" stroke-linejoin="round"/>
<path d="M29.7084 75.4818L27.5727 40.4466C27.5159 38.7434 26.6071 38.1376 25.8346 38.1376H20.3022" stroke="#323232" stroke-width="2" stroke-linejoin="round"/>
</svg>
